# xmcd
#
# Track frame offsets:
#	150
#	16895
#	40302
#	59220
#	76472
#	87255
#	120850
#	142250
#	164715
#	175295
#	185457
#	220390
#	241800
#	254175
#	275927
#	292510
#	303075
#	321155
#
# Disc length: 4599
#
# Revision: 3
# Processed by: cddbd v1.5.1PL0 Copyright (c) Steve Scherf et al.
# Submitted via: cddb2pg 0.002
# Normalized: r2:DSETVAR1
#
DISCID=1011f512
DTITLE=Various Artist - Funk Essentials
DYEAR=1900
DGENRE=
TTITLE0=Curtis Mayfield - Move On Up
TTITLE1=Gil Scott-Heron - The Bottle
TTITLE2=Aaron Neville - Hercules
TTITLE3=Bobby Womack - Across 110th St
TTITLE4=The Meters - Funky Miracle
TTITLE5=Funkadelic - One Nation Under A Groove
TTITLE6=Loleatta Holloway - Runaway
TTITLE7=Leroy Hutson - Lucky Fellow
TTITLE8=The Impressions - Mighty Mighty
TTITLE9=Joe Tex - I Gotcha
TTITLE10=Maceo and All The King's Men - Maceo
TTITLE11=The Last Poets - It's A Trip
TTITLE12=Robert Parker - Get Ta' Steppin'
TTITLE13=Lee Dorsey - Yes We Can
TTITLE14=94 East Featuring Prince - Games
TTITLE15=Sly and The Family Stone - The Same Thing
TTITLE16=Roy Ayers - Everybody
TTITLE17=Instant Funk - I Got My Mind Made Up
EXTD=
EXTT0=
EXTT1=
EXTT2=
EXTT3=
EXTT4=
EXTT5=
EXTT6=
EXTT7=
EXTT8=
EXTT9=
EXTT10=
EXTT11=
EXTT12=
EXTT13=
EXTT14=
EXTT15=
EXTT16=
EXTT17=
PLAYORDER=
